<svg id="レイヤー_1" data-name="レイヤー 1" xmlns="http://www.w3.org/2000/svg" viewBox="0 0 700 700"><defs><style>.cls-1{fill:#5991dd;}.cls-2{fill:#d63535;}.cls-3{fill:#71c93e;}</style></defs><title>アートボード 1</title><polygon class="cls-1" points="75.5 0.5 423.8 0.5 75.5 348.8 75.5 0.5"/><path class="cls-1" d="M422.6,1,76,347.6V1H422.6M425,0H75V350L425,0Z"/><polygon class="cls-2" points="75.5 699.5 75.5 351.2 423.8 699.5 75.5 699.5"/><path class="cls-2" d="M76,352.4,422.6,699H76V352.4M75,350V700H425L75,350Z"/><polygon class="cls-3" points="275.7 350 624.5 1.2 624.5 698.8 275.7 350"/><path class="cls-3" d="M624,2.4V697.6L276.4,350,624,2.4M625,0,275,350,625,700V0Z"/></svg>